<mxfile host="app.diagrams.net" modified="2024-05-15T05:36:52.879Z" agent="Mozilla/5.0 (Linux; arm_64; Android 13; SM-M225FV) AppleWebKit/537.36 (KHTML, like Gecko) Chrome/122.0.6261.702 YaApp_Android/24.43.1 YaSearchBrowser/24.43.1 BroPP/1.0 SA/3 Mobile Safari/537.36" version="24.4.0" etag="pilUdt-cUFevR2iGlFr_" type="github">
  <diagram name="Страница — 1" id="jRIGDX8SgZq4sKh7fK_7">
    <mxGraphModel>
      <root>
        <mxCell id="0" />
        <mxCell id="1" parent="0" />
      </root>
    </mxGraphModel>
  </diagram>
</mxfile>
